<svg width="18" height="22" viewBox="0 0 18 22" fill="none" xmlns="http://www.w3.org/2000/svg">
<path d="M14.4942 11.5642C14.467 8.92837 16.6432 7.66698 16.7396 7.60369C15.5174 5.81786 13.6156 5.57221 12.9359 5.54509C11.3188 5.37931 9.77716 6.49753 8.95432 6.49753C8.1345 6.49753 6.86558 5.56769 5.52281 5.5918C3.75657 5.61893 2.13049 6.6196 1.22024 8.19897C-0.613815 11.3818 0.750048 16.0958 2.53739 18.6804C3.41146 19.9433 4.45433 21.3614 5.8212 21.3116C7.13835 21.2589 7.63567 20.4587 9.2286 20.4587C10.8215 20.4587 11.2691 21.3116 12.6616 21.286C14.0797 21.2589 14.9764 19.9975 15.843 18.7316C16.8466 17.2653 17.2596 15.8441 17.2852 15.7733C17.252 15.7552 14.5228 14.7108 14.4942 11.5642Z" fill="white"/>
<path d="M11.8747 3.83517C12.5996 2.95657 13.0909 1.73286 12.9567 0.513672C11.9093 0.555869 10.6449 1.20841 9.89293 2.08852C9.21929 2.86765 8.63305 4.11095 8.78979 5.30603C9.95623 5.39796 11.1498 4.71226 11.8747 3.83517Z" fill="white"/>
</svg>
