<svg width="21" height="21" viewBox="0 0 21 21" fill="none" xmlns="http://www.w3.org/2000/svg">
<g clip-path="url(#clip0_569_83472)">
<path d="M20.7401 10.6919C20.7401 9.85198 20.6704 9.23909 20.5194 8.60352H10.7041V12.3943H16.4655C16.3494 13.3364 15.7221 14.7551 14.3282 15.7084L14.3087 15.8353L17.4121 18.1845L17.6271 18.2054C19.6017 16.4235 20.7401 13.8017 20.7401 10.6919Z" fill="#4285F4"/>
<path d="M10.7043 20.6789C13.5269 20.6789 15.8965 19.7709 17.6273 18.2047L14.3284 15.7076C13.4457 16.3092 12.2608 16.7291 10.7043 16.7291C7.93981 16.7291 5.59344 14.9473 4.75702 12.4844L4.63442 12.4945L1.40744 14.9348L1.36523 15.0494C3.08435 18.3862 6.61556 20.6789 10.7043 20.6789Z" fill="#34A853"/>
<path d="M4.75688 12.4854C4.53618 11.8498 4.40846 11.1688 4.40846 10.4651C4.40846 9.76139 4.53618 9.08043 4.74527 8.44485L4.73942 8.30948L1.47199 5.83008L1.36509 5.87976C0.656557 7.26445 0.25 8.8194 0.25 10.4651C0.25 12.1108 0.656557 13.6657 1.36509 15.0504L4.75688 12.4854Z" fill="#FBBC05"/>
<path d="M10.7041 4.19969C12.6671 4.19969 13.9913 5.02822 14.7464 5.7206L17.6968 2.90585C15.8848 1.26013 13.5267 0.25 10.7041 0.25C6.61531 0.25 3.08411 2.54264 1.36499 5.87944L4.74517 8.44452C5.59319 5.98163 7.93956 4.19969 10.7041 4.19969Z" fill="#EB4335"/>
</g>
<defs>
<clipPath id="clip0_569_83472">
<rect width="20.5" height="20.5" fill="white" transform="translate(0.25 0.25)"/>
</clipPath>
</defs>
</svg>
